<svg width="22" height="19" viewBox="0 0 22 19" fill="none" xmlns="http://www.w3.org/2000/svg">
<path d="M21.5006 4.23622L19.1824 0.535778C18.9753 0.203596 18.6074 0 18.2144 0H3.78416C3.39125 0 3.02335 0.203596 2.81618 0.535778L0.498049 4.23622C-0.698522 6.14716 0.362319 8.80462 2.5983 9.10823C2.75903 9.12966 2.92334 9.14038 3.08764 9.14038C4.14491 9.14038 5.08074 8.67603 5.72367 7.95809C6.36661 8.67603 7.306 9.14038 8.3597 9.14038C9.41697 9.14038 10.3528 8.67603 10.9957 7.95809C11.6387 8.67603 12.5781 9.14038 13.6318 9.14038C14.689 9.14038 15.6249 8.67603 16.2678 7.95809C16.9143 8.67603 17.8501 9.14038 18.9038 9.14038C19.0717 9.14038 19.2324 9.12966 19.3932 9.10823C21.6363 8.80819 22.7007 6.15073 21.5006 4.23622ZM18.911 10.2869C18.5538 10.2869 18.2002 10.2334 17.8573 10.1512V13.7159H4.14134V10.1512C3.79844 10.2298 3.44483 10.2869 3.08764 10.2869C2.87333 10.2869 2.65545 10.2727 2.44471 10.2441C2.24469 10.2155 2.04823 10.1691 1.85893 10.1155V17.1449C1.85893 17.7771 2.3697 18.2879 3.00192 18.2879H19.0038C19.636 18.2879 20.1468 17.7771 20.1468 17.1449V10.1155C19.9539 10.1726 19.7611 10.2191 19.561 10.2441C19.3432 10.2727 19.1288 10.2869 18.911 10.2869Z" fill="white"/>
</svg>
