<svg width="19" height="22" viewBox="0 0 19 22" fill="none" xmlns="http://www.w3.org/2000/svg">
<path d="M18.2818 20.1268H17.4432V1.00634C17.4432 0.450547 16.9927 0 16.4369 0H2.34813C1.79233 0 1.34179 0.450547 1.34179 1.00634V20.1268H0.50317C0.225294 20.1268 0 20.3521 0 20.63V21.4686H18.785V20.63C18.785 20.3521 18.5597 20.1268 18.2818 20.1268ZM5.36714 3.18674C5.36714 2.90887 5.59244 2.68357 5.87031 2.68357H7.54755C7.82542 2.68357 8.05072 2.90887 8.05072 3.18674V4.86397C8.05072 5.14185 7.82542 5.36714 7.54755 5.36714H5.87031C5.59244 5.36714 5.36714 5.14185 5.36714 4.86397V3.18674ZM5.36714 7.2121C5.36714 6.93422 5.59244 6.70893 5.87031 6.70893H7.54755C7.82542 6.70893 8.05072 6.93422 8.05072 7.2121V8.88933C8.05072 9.16721 7.82542 9.3925 7.54755 9.3925H5.87031C5.59244 9.3925 5.36714 9.16721 5.36714 8.88933V7.2121ZM7.54755 13.4179H5.87031C5.59244 13.4179 5.36714 13.1926 5.36714 12.9147V11.2375C5.36714 10.9596 5.59244 10.7343 5.87031 10.7343H7.54755C7.82542 10.7343 8.05072 10.9596 8.05072 11.2375V12.9147C8.05072 13.1926 7.82542 13.4179 7.54755 13.4179ZM10.7343 20.1268H8.05072V16.6046C8.05072 16.3267 8.27601 16.1014 8.55389 16.1014H10.2311C10.509 16.1014 10.7343 16.3267 10.7343 16.6046V20.1268ZM13.4179 12.9147C13.4179 13.1926 13.1926 13.4179 12.9147 13.4179H11.2375C10.9596 13.4179 10.7343 13.1926 10.7343 12.9147V11.2375C10.7343 10.9596 10.9596 10.7343 11.2375 10.7343H12.9147C13.1926 10.7343 13.4179 10.9596 13.4179 11.2375V12.9147ZM13.4179 8.88933C13.4179 9.16721 13.1926 9.3925 12.9147 9.3925H11.2375C10.9596 9.3925 10.7343 9.16721 10.7343 8.88933V7.2121C10.7343 6.93422 10.9596 6.70893 11.2375 6.70893H12.9147C13.1926 6.70893 13.4179 6.93422 13.4179 7.2121V8.88933ZM13.4179 4.86397C13.4179 5.14185 13.1926 5.36714 12.9147 5.36714H11.2375C10.9596 5.36714 10.7343 5.14185 10.7343 4.86397V3.18674C10.7343 2.90887 10.9596 2.68357 11.2375 2.68357H12.9147C13.1926 2.68357 13.4179 2.90887 13.4179 3.18674V4.86397Z" fill="white"/>
</svg>
