<svg width="38" height="38" viewBox="0 0 38 38" fill="none" xmlns="http://www.w3.org/2000/svg">
<path d="M18.7917 0C29.1726 0 37.5833 8.30031 37.5833 18.5448C37.5833 28.7894 29.1726 37.0897 18.7917 37.0897C8.41079 37.0897 0 28.7894 0 18.5448C0 8.30031 8.41079 0 18.7917 0ZM27.4222 17.2736L17.155 7.14125C16.4427 6.43835 15.291 6.43835 14.5863 7.14125L13.2981 8.41247C12.5859 9.11538 12.5859 10.252 13.2981 10.9474L20.9967 18.5448L13.2981 26.1422C12.5859 26.8451 12.5859 27.9818 13.2981 28.6772L14.5863 29.9484C15.2985 30.6513 16.4503 30.6513 17.155 29.9484L27.4222 19.816C28.1345 19.1131 28.1345 17.9765 27.4222 17.2736Z" fill="white"/>
</svg>
