<svg width="38" height="38" viewBox="0 0 38 38" fill="none" xmlns="http://www.w3.org/2000/svg">
<path d="M18.7923 0C8.41143 0 0.000640869 8.30031 0.000640869 18.5448C0.000640869 28.7894 8.41143 37.0897 18.7923 37.0897C29.1732 37.0897 37.584 28.7894 37.584 18.5448C37.584 8.30031 29.1732 0 18.7923 0ZM10.1618 17.2736L20.429 7.14125C21.1413 6.43835 22.293 6.43835 22.9977 7.14125L24.2858 8.41247C24.9981 9.11538 24.9981 10.252 24.2858 10.9474L16.5873 18.5448L24.2858 26.1422C24.9981 26.8451 24.9981 27.9818 24.2858 28.6772L22.9977 29.9484C22.2854 30.6513 21.1337 30.6513 20.429 29.9484L10.1618 19.816C9.44952 19.1131 9.44952 17.9765 10.1618 17.2736Z" fill="white" fill-opacity="0.5"/>
</svg>
